<?xml version="1.0" standalone="no"?>
<!DOCTYPE svg PUBLIC "-//W3C//DTD SVG 1.1//EN"
  "http://www.w3.org/Graphics/SVG/1.1/DTD/svg11.dtd">
<svg width="22mm" height="22mm" viewBox="-11 -11 22 22" xmlns="http://www.w3.org/2000/svg" version="1.1">
  <g transform="scale(3.544)">
	  <title>svgOutput</title>
	  <desc>made with tinkercad</desc>
    <path d="M -1.9509999752044678 9.807999610900879 L -2.9030001163482666 9.569000244140625 L -3.8269999027252197 9.23900032043457 L -4.714000225067139 8.819000244140625 L -5.556000232696533 8.3149995803833 L -5.721682071685791 8.192000389099121 L -6.343999862670898 7.730000019073486 L -7.071000099182129 7.071000099182129 L -7.730000019073486 6.343999862670898 L -8.3149995803833 5.556000232696533 L -8.819000244140625 4.714000225067139 L -9.23900032043457 3.8269999027252197 L -9.569000244140625 2.9030001163482666 L -9.807999610900879 1.9509999752044678 L -9.95199966430664 0.9800000190734863 L -10 4.440892164675075e-17 L -9.95199966430664 -0.9800000190734863 L -9.807999610900879 -1.9509999752044678 L -9.569000244140625 -2.9030001163482666 L -9.23900032043457 -3.8269999027252197 L -8.819000244140625 -4.714000225067139 L -8.3149995803833 -5.556000232696533 L -7.730000019073486 -6.343999862670898 L -7.071000099182129 -7.071000099182129 L -6.343999862670898 -7.730000019073486 L -5.721682071685791 -8.192000389099121 L -5.556000232696533 -8.3149995803833 L -4.714000225067139 -8.819000244140625 L -3.8269999027252197 -9.23900032043457 L -2.9030001163482666 -9.569000244140625 L -1.9509999752044678 -9.807999610900879 L -0.9800000190734863 -9.95199966430664 L -3.8805106860034105e-14 -10 L 0.9800000190734863 -9.95199966430664 L 1.9509999752044678 -9.807999610900879 L 2.9030001163482666 -9.569000244140625 L 3.8269999027252197 -9.23900032043457 L 4.714000225067139 -8.819000244140625 L 5.556000232696533 -8.3149995803833 L 5.721682071685791 -8.192000389099121 L 6.343999862670898 -7.730000019073486 L 7.071000099182129 -7.071000099182129 L 7.730000019073486 -6.343999862670898 L 8.3149995803833 -5.556000232696533 L 8.819000244140625 -4.714000225067139 L 9.23900032043457 -3.8269999027252197 L 9.569000244140625 -2.9030001163482666 L 9.807999610900879 -1.9509999752044678 L 9.95199966430664 -0.9800000190734863 L 10 4.440892164675075e-17 L 9.95199966430664 0.9800000190734863 L 9.807999610900879 1.9509999752044678 L 9.569000244140625 2.9030001163482666 L 9.23900032043457 3.8269999027252197 L 8.819000244140625 4.714000225067139 L 8.646610260009766 5.001999855041504 L 8.3149995803833 5.556000232696533 L 7.730000019073486 6.343999862670898 L 7.071000099182129 7.071000099182129 L 6.343999862670898 7.730000019073486 L 5.721682071685791 8.192000389099121 L 5.556000232696533 8.3149995803833 L 4.714000225067139 8.819000244140625 L 3.8269999027252197 9.23900032043457 L 2.9030001163482666 9.569000244140625 L 1.9509999752044678 9.807999610900879 L 0.9800000190734863 9.95199966430664 L -3.8805106860034105e-14 10 L -0.9800000190734863 9.95199966430664 L -1.9509999752044678 9.807999610900879 M 0.485052227973938 -4.978252410888672 L -2.959854826341323e-20 -5.002009868621826 L -0.0049477629363536835 -5.001757621765137 L -0.49000000953674316 -4.978000164031982 L -0.9760000109672546 -4.906000137329102 L -1.4520000219345093 -4.7870001792907715 L -1.9140000343322754 -4.622000217437744 L -2.3580000400543213 -4.4120001792907715 L -2.7790000438690186 -4.158999919891357 L -2.864222526550293 -4.0960001945495605 L -3.1740000247955322 -3.867000102996826 L -3.5369999408721924 -3.5369999408721924 L -3.867000102996826 -3.1740000247955322 L -4.158999919891357 -2.7790000438690186 L -4.4120001792907715 -2.3580000400543213 L -4.622000217437744 -1.9140000343322754 L -4.7870001792907715 -1.4520000219345093 L -4.906000137329102 -0.9760000109672546 L -4.978000164031982 -0.4900000095367431 L -5.001999855041504 4.440892164675075e-17 L -4.978000164031982 0.4900000095367432 L -4.906000137329102 0.9760000109672546 L -4.7870001792907715 1.4520000219345093 L -4.622000217437744 1.9140000343322754 L -4.4120001792907715 2.3580000400543213 L -4.158999919891357 2.7790000438690186 L -3.867000102996826 3.1740000247955322 L -3.5369999408721924 3.5369999408721924 L -3.1740000247955322 3.867000102996826 L -2.864222526550293 4.0960001945495605 L -2.7790000438690186 4.158999919891357 L -2.3580000400543213 4.4120001792907715 L -1.9140000343322754 4.622000217437744 L -1.4520000219345093 4.7870001792907715 L -0.9760000109672546 4.906000137329102 L -0.49000000953674316 4.978000164031982 L 0 5.001999855041504 L 0.49000000953674316 4.978000164031982 L 0.9760000109672546 4.906000137329102 L 1.4520000219345093 4.7870001792907715 L 1.9140000343322754 4.622000217437744 L 2.3580000400543213 4.4120001792907715 L 2.7790000438690186 4.158999919891357 L 2.864222526550293 4.0960001945495605 L 3.1740000247955322 3.867000102996826 L 3.5369999408721924 3.5369999408721924 L 3.867000102996826 3.1740000247955322 L 4.158999919891357 2.7790000438690186 L 4.4120001792907715 2.3580000400543213 L 4.622000217437744 1.9140000343322754 L 4.7870001792907715 1.4520000219345093 L 4.906000137329102 0.9760000109672546 L 4.978000164031982 0.4900000095367432 L 5.001999855041504 4.440892164675075e-17 L 4.978000164031982 -0.4900000095367431 L 4.906000137329102 -0.9760000109672546 L 4.7870001792907715 -1.4520000219345093 L 4.622000217437744 -1.9140000343322754 L 4.4120001792907715 -2.3580000400543213 L 4.158999919891357 -2.7790000438690186 L 3.867000102996826 -3.1740000247955322 L 3.5369999408721924 -3.5369999408721924 L 3.1740000247955322 -3.867000102996826 L 2.864222526550293 -4.0960001945495605 L 2.7790000438690186 -4.158999919891357 L 2.3580000400543213 -4.4120001792907715 L 1.9140000343322754 -4.622000217437744 L 1.4520000219345093 -4.7870001792907715 L 0.9760000109672546 -4.906000137329102 L 0.49000000953674316 -4.978000164031982 L 0.485052227973938 -4.978252410888672 z" fill="none" stroke="rgb(0,0,255)" stroke-width="0.01mm" />
  </g>
</svg>
